<mxfile host="app.diagrams.net" modified="2023-05-05T14:05:28.142Z" agent="Mozilla/5.0 (Windows NT 10.0; Win64; x64) AppleWebKit/537.36 (KHTML, like Gecko) Chrome/105.0.0.0 Safari/537.36" etag="hdEpyjz_g8tw45qq9zuQ" version="21.2.9" type="device">
  <diagram name="Page-1" id="1PYv94hw6zYaSMpai8v0">
    <mxGraphModel dx="934" dy="599" grid="1" gridSize="10" guides="1" tooltips="1" connect="1" arrows="1" fold="1" page="1" pageScale="1" pageWidth="850" pageHeight="1100" math="0" shadow="0">
      <root>
        <mxCell id="0" />
        <mxCell id="1" parent="0" />
        <mxCell id="-eEZAZwMn3Csrf7hE4Jh-37" value="" style="rounded=0;whiteSpace=wrap;html=1;fillColor=#FFFFFA;" vertex="1" parent="1">
          <mxGeometry x="10" y="440" width="810" height="190" as="geometry" />
        </mxCell>
        <mxCell id="-eEZAZwMn3Csrf7hE4Jh-36" value="" style="rounded=0;whiteSpace=wrap;html=1;fillColor=#FFFFFA;" vertex="1" parent="1">
          <mxGeometry x="10" y="160" width="810" height="190" as="geometry" />
        </mxCell>
        <mxCell id="-eEZAZwMn3Csrf7hE4Jh-8" style="edgeStyle=orthogonalEdgeStyle;rounded=0;orthogonalLoop=1;jettySize=auto;html=1;exitX=1;exitY=0.5;exitDx=0;exitDy=0;entryX=0;entryY=0.5;entryDx=0;entryDy=0;" edge="1" parent="1" source="-eEZAZwMn3Csrf7hE4Jh-2" target="-eEZAZwMn3Csrf7hE4Jh-3">
          <mxGeometry relative="1" as="geometry" />
        </mxCell>
        <mxCell id="-eEZAZwMn3Csrf7hE4Jh-2" value="&lt;b&gt;&lt;font style=&quot;font-size: 14px;&quot;&gt;Snow Mask Ingestion&lt;/font&gt;&lt;/b&gt;" style="rounded=1;whiteSpace=wrap;html=1;fillColor=#dae8fc;gradientColor=#7ea6e0;strokeColor=#6c8ebf;" vertex="1" parent="1">
          <mxGeometry x="20" y="270" width="120" height="60" as="geometry" />
        </mxCell>
        <mxCell id="-eEZAZwMn3Csrf7hE4Jh-9" value="" style="edgeStyle=orthogonalEdgeStyle;rounded=0;orthogonalLoop=1;jettySize=auto;html=1;" edge="1" parent="1" source="-eEZAZwMn3Csrf7hE4Jh-3" target="-eEZAZwMn3Csrf7hE4Jh-5">
          <mxGeometry relative="1" as="geometry" />
        </mxCell>
        <mxCell id="-eEZAZwMn3Csrf7hE4Jh-12" style="edgeStyle=orthogonalEdgeStyle;rounded=0;orthogonalLoop=1;jettySize=auto;html=1;exitX=0.5;exitY=0;exitDx=0;exitDy=0;entryX=0.5;entryY=1;entryDx=0;entryDy=0;" edge="1" parent="1" source="-eEZAZwMn3Csrf7hE4Jh-3" target="-eEZAZwMn3Csrf7hE4Jh-4">
          <mxGeometry relative="1" as="geometry" />
        </mxCell>
        <mxCell id="-eEZAZwMn3Csrf7hE4Jh-3" value="&lt;font style=&quot;font-size: 14px;&quot;&gt;&lt;b&gt;Temporal Interpolation&lt;/b&gt;&lt;/font&gt;" style="rounded=1;whiteSpace=wrap;html=1;fillColor=#dae8fc;gradientColor=#7ea6e0;strokeColor=#6c8ebf;" vertex="1" parent="1">
          <mxGeometry x="180" y="270" width="120" height="60" as="geometry" />
        </mxCell>
        <mxCell id="-eEZAZwMn3Csrf7hE4Jh-4" value="Cloud Statistics" style="rounded=1;whiteSpace=wrap;html=1;fillColor=#f5f5f5;gradientColor=#b3b3b3;strokeColor=#666666;fontSize=14;fontStyle=1" vertex="1" parent="1">
          <mxGeometry x="180" y="170" width="120" height="60" as="geometry" />
        </mxCell>
        <mxCell id="-eEZAZwMn3Csrf7hE4Jh-10" value="" style="edgeStyle=orthogonalEdgeStyle;rounded=0;orthogonalLoop=1;jettySize=auto;html=1;" edge="1" parent="1" source="-eEZAZwMn3Csrf7hE4Jh-5" target="-eEZAZwMn3Csrf7hE4Jh-6">
          <mxGeometry relative="1" as="geometry" />
        </mxCell>
        <mxCell id="-eEZAZwMn3Csrf7hE4Jh-5" value="Spatial Interpolation" style="rounded=1;whiteSpace=wrap;html=1;fillColor=#dae8fc;gradientColor=#7ea6e0;strokeColor=#6c8ebf;fontSize=14;fontStyle=1" vertex="1" parent="1">
          <mxGeometry x="340" y="270" width="120" height="60" as="geometry" />
        </mxCell>
        <mxCell id="-eEZAZwMn3Csrf7hE4Jh-28" value="" style="edgeStyle=orthogonalEdgeStyle;rounded=0;orthogonalLoop=1;jettySize=auto;html=1;" edge="1" parent="1" source="-eEZAZwMn3Csrf7hE4Jh-6" target="-eEZAZwMn3Csrf7hE4Jh-13">
          <mxGeometry relative="1" as="geometry" />
        </mxCell>
        <mxCell id="-eEZAZwMn3Csrf7hE4Jh-6" value="Seasonal Interpolation" style="rounded=1;whiteSpace=wrap;html=1;fillColor=#dae8fc;gradientColor=#7ea6e0;strokeColor=#6c8ebf;fontSize=14;fontStyle=1" vertex="1" parent="1">
          <mxGeometry x="500" y="270" width="120" height="60" as="geometry" />
        </mxCell>
        <mxCell id="-eEZAZwMn3Csrf7hE4Jh-26" style="edgeStyle=orthogonalEdgeStyle;rounded=0;orthogonalLoop=1;jettySize=auto;html=1;exitX=0.5;exitY=1;exitDx=0;exitDy=0;entryX=0.5;entryY=0;entryDx=0;entryDy=0;" edge="1" parent="1" source="-eEZAZwMn3Csrf7hE4Jh-7" target="-eEZAZwMn3Csrf7hE4Jh-19">
          <mxGeometry relative="1" as="geometry" />
        </mxCell>
        <mxCell id="-eEZAZwMn3Csrf7hE4Jh-27" style="edgeStyle=orthogonalEdgeStyle;rounded=0;orthogonalLoop=1;jettySize=auto;html=1;exitX=0.5;exitY=0;exitDx=0;exitDy=0;entryX=0.5;entryY=1;entryDx=0;entryDy=0;" edge="1" parent="1" source="-eEZAZwMn3Csrf7hE4Jh-7" target="-eEZAZwMn3Csrf7hE4Jh-5">
          <mxGeometry relative="1" as="geometry" />
        </mxCell>
        <mxCell id="-eEZAZwMn3Csrf7hE4Jh-7" value="DEM" style="rounded=1;whiteSpace=wrap;html=1;fillColor=#f5f5f5;gradientColor=#b3b3b3;strokeColor=#666666;fontSize=14;fontStyle=1" vertex="1" parent="1">
          <mxGeometry x="340" y="362" width="120" height="60" as="geometry" />
        </mxCell>
        <mxCell id="-eEZAZwMn3Csrf7hE4Jh-30" value="" style="edgeStyle=orthogonalEdgeStyle;rounded=0;orthogonalLoop=1;jettySize=auto;html=1;" edge="1" parent="1" source="-eEZAZwMn3Csrf7hE4Jh-13" target="-eEZAZwMn3Csrf7hE4Jh-29">
          <mxGeometry relative="1" as="geometry" />
        </mxCell>
        <mxCell id="-eEZAZwMn3Csrf7hE4Jh-13" value="Snow Cover Data Product" style="rounded=1;whiteSpace=wrap;html=1;fillColor=#dae8fc;gradientColor=#7ea6e0;strokeColor=#6c8ebf;fontSize=14;fontStyle=1" vertex="1" parent="1">
          <mxGeometry x="660" y="270" width="120" height="60" as="geometry" />
        </mxCell>
        <mxCell id="-eEZAZwMn3Csrf7hE4Jh-22" value="" style="edgeStyle=orthogonalEdgeStyle;rounded=0;orthogonalLoop=1;jettySize=auto;html=1;" edge="1" parent="1" source="-eEZAZwMn3Csrf7hE4Jh-15" target="-eEZAZwMn3Csrf7hE4Jh-17">
          <mxGeometry relative="1" as="geometry" />
        </mxCell>
        <mxCell id="-eEZAZwMn3Csrf7hE4Jh-15" value="&lt;b&gt;&lt;font style=&quot;font-size: 14px;&quot;&gt;Snow Mask Ingestion&lt;/font&gt;&lt;/b&gt;" style="rounded=1;whiteSpace=wrap;html=1;fillColor=#fff2cc;gradientColor=#ffd966;strokeColor=#d6b656;" vertex="1" parent="1">
          <mxGeometry x="20" y="460" width="120" height="60" as="geometry" />
        </mxCell>
        <mxCell id="-eEZAZwMn3Csrf7hE4Jh-23" value="" style="edgeStyle=orthogonalEdgeStyle;rounded=0;orthogonalLoop=1;jettySize=auto;html=1;" edge="1" parent="1" source="-eEZAZwMn3Csrf7hE4Jh-17" target="-eEZAZwMn3Csrf7hE4Jh-19">
          <mxGeometry relative="1" as="geometry" />
        </mxCell>
        <mxCell id="-eEZAZwMn3Csrf7hE4Jh-33" value="" style="edgeStyle=orthogonalEdgeStyle;rounded=0;orthogonalLoop=1;jettySize=auto;html=1;" edge="1" parent="1" source="-eEZAZwMn3Csrf7hE4Jh-17" target="-eEZAZwMn3Csrf7hE4Jh-32">
          <mxGeometry relative="1" as="geometry" />
        </mxCell>
        <mxCell id="-eEZAZwMn3Csrf7hE4Jh-17" value="&lt;font style=&quot;font-size: 14px;&quot;&gt;&lt;b&gt;Temporal Interpolation&lt;/b&gt;&lt;/font&gt;" style="rounded=1;whiteSpace=wrap;html=1;fillColor=#fff2cc;gradientColor=#ffd966;strokeColor=#d6b656;" vertex="1" parent="1">
          <mxGeometry x="180" y="460" width="120" height="60" as="geometry" />
        </mxCell>
        <mxCell id="-eEZAZwMn3Csrf7hE4Jh-24" value="" style="edgeStyle=orthogonalEdgeStyle;rounded=0;orthogonalLoop=1;jettySize=auto;html=1;" edge="1" parent="1" source="-eEZAZwMn3Csrf7hE4Jh-19" target="-eEZAZwMn3Csrf7hE4Jh-20">
          <mxGeometry relative="1" as="geometry" />
        </mxCell>
        <mxCell id="-eEZAZwMn3Csrf7hE4Jh-19" value="Spatial Interpolation" style="rounded=1;whiteSpace=wrap;html=1;fillColor=#fff2cc;gradientColor=#ffd966;strokeColor=#d6b656;fontSize=14;fontStyle=1" vertex="1" parent="1">
          <mxGeometry x="340" y="460" width="120" height="60" as="geometry" />
        </mxCell>
        <mxCell id="-eEZAZwMn3Csrf7hE4Jh-25" value="" style="edgeStyle=orthogonalEdgeStyle;rounded=0;orthogonalLoop=1;jettySize=auto;html=1;" edge="1" parent="1" source="-eEZAZwMn3Csrf7hE4Jh-20" target="-eEZAZwMn3Csrf7hE4Jh-21">
          <mxGeometry relative="1" as="geometry" />
        </mxCell>
        <mxCell id="-eEZAZwMn3Csrf7hE4Jh-20" value="Seasonal Interpolation" style="rounded=1;whiteSpace=wrap;html=1;fillColor=#fff2cc;gradientColor=#ffd966;strokeColor=#d6b656;fontSize=14;fontStyle=1" vertex="1" parent="1">
          <mxGeometry x="500" y="460" width="120" height="60" as="geometry" />
        </mxCell>
        <mxCell id="-eEZAZwMn3Csrf7hE4Jh-31" value="" style="edgeStyle=orthogonalEdgeStyle;rounded=0;orthogonalLoop=1;jettySize=auto;html=1;" edge="1" parent="1" source="-eEZAZwMn3Csrf7hE4Jh-21" target="-eEZAZwMn3Csrf7hE4Jh-29">
          <mxGeometry relative="1" as="geometry" />
        </mxCell>
        <mxCell id="-eEZAZwMn3Csrf7hE4Jh-21" value="Snow Cover Data Product" style="rounded=1;whiteSpace=wrap;html=1;fillColor=#fff2cc;gradientColor=#ffd966;strokeColor=#d6b656;fontSize=14;fontStyle=1" vertex="1" parent="1">
          <mxGeometry x="660" y="460" width="120" height="60" as="geometry" />
        </mxCell>
        <mxCell id="-eEZAZwMn3Csrf7hE4Jh-29" value="Accuracy Assessment" style="rounded=1;whiteSpace=wrap;html=1;fillColor=#f5f5f5;gradientColor=#b3b3b3;strokeColor=#666666;fontSize=14;fontStyle=1" vertex="1" parent="1">
          <mxGeometry x="660" y="362" width="120" height="60" as="geometry" />
        </mxCell>
        <mxCell id="-eEZAZwMn3Csrf7hE4Jh-32" value="Cloud Statistics" style="rounded=1;whiteSpace=wrap;html=1;fillColor=#f5f5f5;gradientColor=#b3b3b3;strokeColor=#666666;fontSize=14;fontStyle=1" vertex="1" parent="1">
          <mxGeometry x="180" y="560" width="120" height="60" as="geometry" />
        </mxCell>
        <mxCell id="-eEZAZwMn3Csrf7hE4Jh-38" value="&lt;font color=&quot;#000033&quot; style=&quot;font-size: 20px;&quot;&gt;&lt;b&gt;&lt;i&gt;VIIRS&lt;/i&gt;&lt;/b&gt;&lt;/font&gt;" style="text;html=1;strokeColor=none;fillColor=none;align=center;verticalAlign=middle;whiteSpace=wrap;rounded=0;" vertex="1" parent="1">
          <mxGeometry x="20" y="170" width="60" height="30" as="geometry" />
        </mxCell>
        <mxCell id="-eEZAZwMn3Csrf7hE4Jh-39" value="&lt;font color=&quot;#000033&quot; style=&quot;font-size: 20px;&quot;&gt;&lt;b&gt;&lt;i&gt;MODIS&lt;/i&gt;&lt;/b&gt;&lt;/font&gt;" style="text;html=1;strokeColor=none;fillColor=none;align=center;verticalAlign=middle;whiteSpace=wrap;rounded=0;" vertex="1" parent="1">
          <mxGeometry x="20" y="600" width="60" height="30" as="geometry" />
        </mxCell>
      </root>
    </mxGraphModel>
  </diagram>
</mxfile>
